<svg width="164" height="202" viewBox="0 0 164 202" fill="none" xmlns="http://www.w3.org/2000/svg">
<path d="M81.7517 116.132V194.794L42.4209 155.463L81.7517 116.132Z" fill="#5A4FCF"/>
<path d="M77.3125 111.695C79.1096 109.897 81.8129 109.359 84.161 110.332C86.5089 111.305 88.0393 113.596 88.0393 116.138V194.799C88.0392 197.341 86.5087 199.632 84.161 200.604C81.8129 201.577 79.1096 201.04 77.3125 199.243L37.9821 159.912C35.5281 157.458 35.5281 153.479 37.9821 151.025L77.3125 111.695ZM51.3113 155.468L75.4718 179.629V131.309L51.3113 155.468Z" fill="#5A4FCF"/>
<path d="M121.093 155.463L81.7617 194.794V116.132L121.093 155.463Z" fill="#5A4FCF"/>
<path d="M79.3471 110.332C81.695 109.359 84.3976 109.897 86.1946 111.694L125.526 151.025C127.98 153.479 127.98 157.458 125.526 159.912L86.1946 199.242C84.3975 201.039 81.6951 201.577 79.3471 200.604C76.999 199.632 75.4678 197.341 75.4678 194.799V116.138C75.4678 113.596 76.999 111.304 79.3471 110.332ZM88.0352 179.628L112.195 155.468L88.0352 131.307V179.628Z" fill="#5A4FCF"/>
<path d="M81.7463 80.3284L6.27734 154.363V80.3284L81.7463 6.29395V80.3284Z" fill="#5A4FCF"/>
<path d="M77.3527 1.814C79.159 0.04235 81.8517 -0.473285 84.1847 0.505948C86.5179 1.48555 88.0366 3.76947 88.0366 6.30002V80.3343C88.0366 82.0218 87.3577 83.6387 86.1531 84.8203L10.6839 158.855C8.87746 160.627 6.1842 161.142 3.85101 160.163C1.51789 159.183 0 156.899 0 154.369V80.3343C4.90366e-05 78.647 0.679077 77.0309 1.88356 75.8493L77.3527 1.814ZM12.5675 82.9719V139.403L75.4692 77.6968V21.2661L12.5675 82.9719Z" fill="#5A4FCF"/>
<path d="M79.3178 0.490536C81.6506 -0.489288 84.344 0.0253229 86.1507 1.79664L161.666 75.831C162.871 77.0127 163.55 78.6299 163.55 80.318V154.352C163.55 156.882 162.033 159.167 159.7 160.146C157.367 161.126 154.674 160.611 152.867 158.839L77.3523 84.8049C76.147 83.6232 75.4678 82.006 75.4678 80.318V6.28363C75.4678 3.75357 76.9853 1.47045 79.3178 0.490536ZM88.0352 77.6784L150.983 139.391V82.9565L88.0352 21.2438V77.6784Z" fill="#5A4FCF"/>
</svg>
