<svg width="561" height="138" viewBox="0 0 561 138" fill="none" xmlns="http://www.w3.org/2000/svg">
<path d="M67.6462 77.125V119.671L46.373 98.3982L67.6462 77.125Z" fill="white"/>
<path d="M65.245 74.7233C66.217 73.7513 67.6791 73.4602 68.9492 73.9863C70.2191 74.5123 71.0469 75.7519 71.0469 77.1265V119.673C71.0468 121.047 70.219 122.286 68.9492 122.813C67.6791 123.339 66.217 123.048 65.245 122.076L43.972 100.803C42.6447 99.4758 42.6447 97.3235 43.972 95.9962L65.245 74.7233ZM51.1815 98.3994L64.2494 111.467V85.3321L51.1815 98.3994Z" fill="white"/>
<path d="M88.9255 98.3982L67.6523 119.671V77.125L88.9255 98.3982Z" fill="white"/>
<path d="M66.3482 73.9862C67.6182 73.4603 69.0799 73.7513 70.0519 74.7233L91.3254 95.9962C92.6526 97.3235 92.6526 99.4758 91.3254 100.803L70.0519 122.076C69.0799 123.048 67.6182 123.339 66.3482 122.812C65.0782 122.286 64.25 121.047 64.25 119.673V77.1264C64.25 75.7518 65.0782 74.5123 66.3482 73.9862ZM71.0475 111.467L84.1148 98.3994L71.0475 85.3315V111.467Z" fill="white"/>
<path d="M67.6437 57.7584L26.8242 97.802V57.7584L67.6437 17.7148V57.7584Z" fill="white"/>
<path d="M65.268 15.2928C66.245 14.3345 67.7014 14.0556 68.9633 14.5853C70.2253 15.1151 71.0467 16.3504 71.0467 17.7191V57.7626C71.0467 58.6753 70.6795 59.5499 70.028 60.189L29.2084 100.233C28.2313 101.191 26.7746 101.47 25.5126 100.94C24.2507 100.41 23.4297 99.1748 23.4297 97.8061V57.7626C23.4297 56.85 23.797 55.9759 24.4485 55.3368L65.268 15.2928ZM30.2271 59.1892V89.7113L64.2493 56.336V25.8139L30.2271 59.1892Z" fill="white"/>
<path d="M66.3324 14.5768C67.5941 14.0469 69.0509 14.3252 70.0282 15.2833L110.873 55.3268C111.525 55.966 111.892 56.8407 111.892 57.7537V97.7972C111.892 99.1657 111.071 100.401 109.809 100.931C108.548 101.461 107.091 101.182 106.114 100.224L65.2693 60.1806C64.6174 59.5414 64.25 58.6667 64.25 57.7537V17.7102C64.25 16.3417 65.0708 15.1069 66.3324 14.5768ZM71.0475 56.326L105.094 89.705V59.1808L71.0475 25.8018V56.326Z" fill="white"/>
<path d="M523.9 111.472C517.427 111.472 512.653 109.975 509.578 106.981C506.584 103.987 505.087 99.2934 505.087 92.9007V31.4824H520.623V91.4441C520.623 94.4382 521.271 96.5421 522.565 97.7559C523.86 98.8888 525.883 99.4552 528.634 99.4552H537.738V111.472H523.9ZM494.891 58.6715V46.6549H537.738V58.6715H494.891Z" fill="white"/>
<path d="M431.959 111.472V46.6548H446.039L446.646 64.8618L444.825 64.1335C445.473 59.602 446.808 55.9606 448.831 53.2093C450.854 50.458 453.322 48.435 456.235 47.1403C459.148 45.8456 462.344 45.1982 465.824 45.1982C470.598 45.1982 474.604 46.2502 477.841 48.3541C481.158 50.458 483.667 53.3712 485.366 57.0935C487.065 60.7349 487.915 64.9832 487.915 69.8384V111.472H472.379V74.8149C472.379 71.1735 472.014 68.0986 471.286 65.5901C470.558 63.0816 469.344 61.1799 467.645 59.8852C466.026 58.5096 463.841 57.8218 461.09 57.8218C456.963 57.8218 453.646 59.2783 451.137 62.1914C448.709 65.1046 447.496 69.3124 447.496 74.8149V111.472H431.959Z" fill="white"/>
<path d="M391.897 112.928C385.424 112.928 379.8 111.553 375.025 108.801C370.251 105.969 366.569 102.004 363.98 96.9061C361.39 91.8082 360.096 85.8605 360.096 79.0633C360.096 72.266 361.39 66.3588 363.98 61.3418C366.569 56.2438 370.211 52.2787 374.904 49.4465C379.678 46.6143 385.221 45.1982 391.533 45.1982C397.683 45.1982 403.064 46.5739 407.677 49.3252C412.37 52.0764 415.971 56.0415 418.479 61.2204C420.988 66.3993 422.242 72.6301 422.242 79.9129V83.4329H376.239C376.563 89.0973 378.1 93.3861 380.852 96.2992C383.684 99.1314 387.406 100.548 392.019 100.548C395.498 100.548 398.371 99.7788 400.637 98.2413C402.983 96.6229 404.602 94.3976 405.492 91.5654L421.393 92.5364C419.612 98.8482 416.092 103.825 410.833 107.466C405.654 111.108 399.342 112.928 391.897 112.928ZM376.239 72.9943H406.22C405.896 67.7345 404.399 63.8503 401.729 61.3418C399.059 58.7523 395.66 57.4576 391.533 57.4576C387.406 57.4576 383.967 58.7928 381.216 61.4632C378.545 64.1335 376.887 67.9772 376.239 72.9943Z" fill="white"/>
<path d="M325.222 112.928C318.748 112.928 313.124 111.553 308.35 108.801C303.576 105.969 299.853 102.004 297.183 96.9061C294.594 91.8082 293.299 85.8605 293.299 79.0633C293.299 72.266 294.594 66.3588 297.183 61.3418C299.853 56.2438 303.576 52.2787 308.35 49.4465C313.124 46.6143 318.748 45.1982 325.222 45.1982C330.724 45.1982 335.62 46.1693 339.909 48.1114C344.197 50.0534 347.677 52.8452 350.347 56.4866C353.099 60.0471 354.798 64.4167 355.445 69.5956L339.423 70.4453C338.776 66.3184 337.157 63.2029 334.568 61.099C332.059 58.9142 328.944 57.8218 325.222 57.8218C320.205 57.8218 316.321 59.7234 313.569 63.5266C310.818 67.2489 309.442 72.4278 309.442 79.0633C309.442 85.7796 310.818 90.999 313.569 94.7213C316.321 98.4436 320.205 100.305 325.222 100.305C329.025 100.305 332.181 99.2123 334.689 97.0275C337.279 94.8427 338.857 91.444 339.423 86.8316L355.445 87.5598C354.798 92.7387 353.139 97.2298 350.469 101.033C347.798 104.836 344.319 107.79 340.03 109.894C335.741 111.917 330.805 112.928 325.222 112.928Z" fill="white"/>
<path d="M259.569 112.928C253.176 112.928 247.795 111.998 243.426 110.137C239.137 108.275 235.819 105.686 233.472 102.368C231.126 99.0505 229.79 95.2877 229.467 91.0799L245.368 90.3516C245.934 93.7502 247.35 96.3801 249.616 98.2413C251.882 100.102 255.24 101.033 259.69 101.033C263.332 101.033 266.164 100.467 268.187 99.3337C270.291 98.1199 271.343 96.2588 271.343 93.7502C271.343 92.2937 270.979 91.0799 270.25 90.1088C269.522 89.1378 268.147 88.2881 266.124 87.5598C264.101 86.8316 261.107 86.1033 257.141 85.375C250.506 84.2421 245.287 82.8665 241.483 81.2481C237.68 79.5488 234.969 77.4449 233.351 74.9363C231.813 72.4278 231.045 69.3124 231.045 65.5901C231.045 59.5211 233.351 54.6254 237.963 50.9031C242.657 47.0999 249.495 45.1982 258.477 45.1982C264.303 45.1982 269.199 46.1693 273.164 48.1114C277.129 49.9725 280.204 52.562 282.388 55.8797C284.654 59.1165 286.07 62.8388 286.637 67.0466L270.979 67.7749C270.574 65.5901 269.846 63.6885 268.794 62.0701C267.742 60.4517 266.326 59.2379 264.546 58.4287C262.765 57.5385 260.661 57.0935 258.234 57.0935C254.592 57.0935 251.841 57.8218 249.98 59.2783C248.119 60.7349 247.188 62.677 247.188 65.1046C247.188 66.8039 247.593 68.22 248.402 69.3529C249.292 70.4857 250.708 71.4163 252.65 72.1446C254.592 72.792 257.182 73.3989 260.419 73.9653C267.216 75.0173 272.557 76.3929 276.441 78.0922C280.406 79.7106 283.198 81.8145 284.816 84.404C286.515 86.9125 287.365 89.947 287.365 93.5075C287.365 97.6344 286.192 101.154 283.845 104.068C281.579 106.981 278.342 109.206 274.135 110.743C270.008 112.2 265.153 112.928 259.569 112.928Z" fill="white"/>
<path d="M146.135 111.472L177.208 25.292H196.507L227.581 111.472H211.073L203.912 91.0799H169.804L162.642 111.472H146.135ZM174.416 77.6068H199.299L186.918 41.1928L174.416 77.6068Z" fill="white"/>
</svg>
