<svg width="561" height="138" viewBox="0 0 561 138" fill="none" xmlns="http://www.w3.org/2000/svg">
<path d="M67.6462 77.125V119.671L46.373 98.3982L67.6462 77.125Z" fill="#5A4FCF"/>
<path d="M65.245 74.7233C66.217 73.7513 67.6791 73.4602 68.9492 73.9863C70.2191 74.5123 71.0469 75.7519 71.0469 77.1265V119.673C71.0468 121.047 70.219 122.286 68.9492 122.813C67.6791 123.339 66.217 123.048 65.245 122.076L43.972 100.803C42.6447 99.4758 42.6447 97.3235 43.972 95.9962L65.245 74.7233ZM51.1815 98.3994L64.2494 111.467V85.3321L51.1815 98.3994Z" fill="#5A4FCF"/>
<path d="M88.9255 98.3982L67.6523 119.671V77.125L88.9255 98.3982Z" fill="#5A4FCF"/>
<path d="M66.3482 73.9862C67.6182 73.4603 69.0799 73.7513 70.0519 74.7233L91.3254 95.9962C92.6526 97.3235 92.6526 99.4758 91.3254 100.803L70.0519 122.076C69.0799 123.048 67.6182 123.339 66.3482 122.812C65.0782 122.286 64.25 121.047 64.25 119.673V77.1264C64.25 75.7518 65.0782 74.5123 66.3482 73.9862ZM71.0475 111.467L84.1148 98.3994L71.0475 85.3315V111.467Z" fill="#5A4FCF"/>
<path d="M67.6437 57.7584L26.8242 97.802V57.7584L67.6437 17.7148V57.7584Z" fill="#5A4FCF"/>
<path d="M65.268 15.2928C66.245 14.3345 67.7014 14.0556 68.9633 14.5853C70.2253 15.1151 71.0467 16.3504 71.0467 17.7191V57.7626C71.0467 58.6753 70.6795 59.5499 70.028 60.189L29.2084 100.233C28.2313 101.191 26.7746 101.47 25.5126 100.94C24.2507 100.41 23.4297 99.1748 23.4297 97.8061V57.7626C23.4297 56.85 23.797 55.9759 24.4485 55.3368L65.268 15.2928ZM30.2271 59.1892V89.7113L64.2493 56.336V25.8139L30.2271 59.1892Z" fill="#5A4FCF"/>
<path d="M66.3324 14.5768C67.5941 14.0469 69.0509 14.3252 70.0282 15.2833L110.873 55.3268C111.525 55.966 111.892 56.8407 111.892 57.7537V97.7972C111.892 99.1657 111.071 100.401 109.809 100.931C108.548 101.461 107.091 101.182 106.114 100.224L65.2693 60.1806C64.6174 59.5414 64.25 58.6667 64.25 57.7537V17.7102C64.25 16.3417 65.0708 15.1069 66.3324 14.5768ZM71.0475 56.326L105.094 89.705V59.1808L71.0475 25.8018V56.326Z" fill="#5A4FCF"/>
<path d="M523.898 111.472C517.425 111.472 512.651 109.975 509.576 106.981C506.582 103.987 505.085 99.2934 505.085 92.9007V31.4824H520.621V91.4441C520.621 94.4382 521.269 96.5421 522.563 97.7559C523.858 98.8888 525.881 99.4552 528.632 99.4552H537.736V111.472H523.898ZM494.889 58.6715V46.6549H537.736V58.6715H494.889Z" fill="#5A4FCF"/>
<path d="M431.955 111.472V46.6548H446.035L446.642 64.8618L444.821 64.1335C445.469 59.602 446.804 55.9606 448.827 53.2093C450.85 50.458 453.318 48.435 456.231 47.1403C459.144 45.8456 462.341 45.1982 465.82 45.1982C470.594 45.1982 474.6 46.2502 477.837 48.3541C481.154 50.458 483.663 53.3712 485.362 57.0935C487.062 60.7349 487.911 64.9832 487.911 69.8384V111.472H472.375V74.8149C472.375 71.1735 472.01 68.0986 471.282 65.5901C470.554 63.0816 469.34 61.1799 467.641 59.8852C466.022 58.5096 463.838 57.8218 461.086 57.8218C456.959 57.8218 453.642 59.2783 451.133 62.1914C448.706 65.1046 447.492 69.3124 447.492 74.8149V111.472H431.955Z" fill="#5A4FCF"/>
<path d="M391.893 112.928C385.42 112.928 379.796 111.553 375.022 108.801C370.247 105.969 366.565 102.004 363.976 96.9061C361.387 91.8082 360.092 85.8605 360.092 79.0633C360.092 72.266 361.387 66.3588 363.976 61.3418C366.565 56.2438 370.207 52.2787 374.9 49.4465C379.674 46.6143 385.217 45.1982 391.529 45.1982C397.679 45.1982 403.06 46.5739 407.673 49.3252C412.366 52.0764 415.967 56.0415 418.476 61.2204C420.984 66.3993 422.238 72.6301 422.238 79.9129V83.4329H376.235C376.559 89.0973 378.096 93.3861 380.848 96.2992C383.68 99.1314 387.402 100.548 392.015 100.548C395.494 100.548 398.367 99.7788 400.633 98.2413C402.979 96.6229 404.598 94.3976 405.488 91.5654L421.389 92.5364C419.608 98.8482 416.088 103.825 410.829 107.466C405.65 111.108 399.338 112.928 391.893 112.928ZM376.235 72.9943H406.216C405.892 67.7345 404.395 63.8503 401.725 61.3418C399.055 58.7523 395.656 57.4576 391.529 57.4576C387.402 57.4576 383.963 58.7928 381.212 61.4632C378.542 64.1335 376.883 67.9772 376.235 72.9943Z" fill="#5A4FCF"/>
<path d="M325.218 112.928C318.744 112.928 313.12 111.553 308.346 108.801C303.572 105.969 299.849 102.004 297.179 96.9061C294.59 91.8082 293.295 85.8605 293.295 79.0633C293.295 72.266 294.59 66.3588 297.179 61.3418C299.849 56.2438 303.572 52.2787 308.346 49.4465C313.12 46.6143 318.744 45.1982 325.218 45.1982C330.72 45.1982 335.616 46.1693 339.905 48.1114C344.194 50.0534 347.673 52.8452 350.343 56.4866C353.095 60.0471 354.794 64.4167 355.441 69.5956L339.419 70.4453C338.772 66.3184 337.154 63.2029 334.564 61.099C332.056 58.9142 328.94 57.8218 325.218 57.8218C320.201 57.8218 316.317 59.7234 313.565 63.5266C310.814 67.2489 309.438 72.4278 309.438 79.0633C309.438 85.7796 310.814 90.999 313.565 94.7213C316.317 98.4436 320.201 100.305 325.218 100.305C329.021 100.305 332.177 99.2123 334.685 97.0275C337.275 94.8427 338.853 91.444 339.419 86.8316L355.441 87.5598C354.794 92.7387 353.135 97.2298 350.465 101.033C347.795 104.836 344.315 107.79 340.026 109.894C335.737 111.917 330.801 112.928 325.218 112.928Z" fill="#5A4FCF"/>
<path d="M259.565 112.928C253.172 112.928 247.791 111.998 243.422 110.137C239.133 108.275 235.815 105.686 233.468 102.368C231.122 99.0505 229.787 95.2877 229.463 91.0799L245.364 90.3516C245.93 93.7502 247.346 96.3801 249.612 98.2413C251.878 100.102 255.236 101.033 259.687 101.033C263.328 101.033 266.16 100.467 268.183 99.3337C270.287 98.1199 271.339 96.2588 271.339 93.7502C271.339 92.2937 270.975 91.0799 270.247 90.1088C269.518 89.1378 268.143 88.2881 266.12 87.5598C264.097 86.8316 261.103 86.1033 257.138 85.375C250.502 84.2421 245.283 82.8665 241.48 81.2481C237.676 79.5488 234.965 77.4449 233.347 74.9363C231.81 72.4278 231.041 69.3124 231.041 65.5901C231.041 59.5211 233.347 54.6254 237.959 50.9031C242.653 47.0999 249.491 45.1982 258.473 45.1982C264.299 45.1982 269.195 46.1693 273.16 48.1114C277.125 49.9725 280.2 52.562 282.385 55.8797C284.65 59.1165 286.066 62.8388 286.633 67.0466L270.975 67.7749C270.57 65.5901 269.842 63.6885 268.79 62.0701C267.738 60.4517 266.322 59.2379 264.542 58.4287C262.761 57.5385 260.658 57.0935 258.23 57.0935C254.589 57.0935 251.837 57.8218 249.976 59.2783C248.115 60.7349 247.184 62.677 247.184 65.1046C247.184 66.8039 247.589 68.22 248.398 69.3529C249.288 70.4857 250.704 71.4163 252.646 72.1446C254.589 72.792 257.178 73.3989 260.415 73.9653C267.212 75.0173 272.553 76.3929 276.437 78.0922C280.402 79.7106 283.194 81.8145 284.812 84.404C286.511 86.9125 287.361 89.947 287.361 93.5075C287.361 97.6344 286.188 101.154 283.841 104.068C281.575 106.981 278.339 109.206 274.131 110.743C270.004 112.2 265.149 112.928 259.565 112.928Z" fill="#5A4FCF"/>
<path d="M146.133 111.472L177.206 25.292H196.506L227.579 111.472H211.071L203.91 91.0799H169.802L162.64 111.472H146.133ZM174.414 77.6068H199.297L186.916 41.1928L174.414 77.6068Z" fill="#5A4FCF"/>
</svg>
