<svg width="138" height="138" viewBox="0 0 138 138" fill="none" xmlns="http://www.w3.org/2000/svg" xmlns:xlink="http://www.w3.org/1999/xlink">
<rect width="137.383" height="137.383"/>
<path d="M67.6462 77.125V119.671L46.373 98.3982L67.6462 77.125Z" fill="black"/>
<path d="M65.245 74.7253C66.217 73.7532 67.6791 73.4622 68.9492 73.9882C70.2191 74.5143 71.0469 75.7538 71.0469 77.1284V119.675C71.0468 121.049 70.219 122.288 68.9492 122.814C67.6791 123.341 66.217 123.05 65.245 122.078L43.972 100.805C42.6447 99.4778 42.6447 97.3255 43.972 95.9982L65.245 74.7253ZM51.1815 98.4014L64.2494 111.469V85.334L51.1815 98.4014Z" fill="black"/>
<path d="M88.9255 98.3982L67.6523 119.671V77.125L88.9255 98.3982Z" fill="black"/>
<path d="M66.3463 73.9882C67.6162 73.4622 69.078 73.7532 70.0499 74.7252L91.3234 95.9981C92.6507 97.3254 92.6507 99.4777 91.3234 100.805L70.0499 122.078C69.0779 123.05 67.6163 123.34 66.3463 122.814C65.0763 122.288 64.2481 121.049 64.248 119.675V77.1284C64.248 75.7537 65.0763 74.5142 66.3463 73.9882ZM71.0455 111.469L84.1128 98.4013L71.0455 85.3335V111.469Z" fill="black"/>
<path d="M67.6437 57.7584L26.8242 97.802V57.7584L67.6437 17.7148V57.7584Z" fill="black"/>
<path d="M65.268 15.2937C66.245 14.3355 67.7014 14.0566 68.9633 14.5862C70.2253 15.1161 71.0467 16.3514 71.0467 17.7201V57.7636C71.0467 58.6763 70.6795 59.5508 70.028 60.19L29.2084 100.233C28.2313 101.192 26.7746 101.471 25.5126 100.941C24.2507 100.411 23.4297 99.1758 23.4297 97.8071V57.7636C23.4297 56.851 23.797 55.9769 24.4485 55.3377L65.268 15.2937ZM30.2271 59.1902V89.7123L64.2493 56.337V25.8149L30.2271 59.1902Z" fill="black"/>
<path d="M66.3304 14.5768C67.5922 14.0469 69.049 14.3252 70.0262 15.2833L110.871 55.3268C111.523 55.966 111.89 56.8407 111.89 57.7537V97.7972C111.89 99.1657 111.069 100.401 109.807 100.931C108.546 101.461 107.089 101.182 106.112 100.224L65.2673 60.1806C64.6154 59.5414 64.248 58.6667 64.248 57.7537V17.7102C64.248 16.3417 65.0688 15.1069 66.3304 14.5768ZM71.0455 56.326L105.092 89.705V59.1808L71.0455 25.8018V56.326Z" fill="black"/>
</svg>
