<svg width="138" height="138" viewBox="0 0 138 138" fill="none" xmlns="http://www.w3.org/2000/svg" xmlns:xlink="http://www.w3.org/1999/xlink">
<rect width="137.383" height="137.383"/>
<path d="M67.6462 77.125V119.671L46.373 98.3982L67.6462 77.125Z" fill="white"/>
<path d="M65.245 74.7243C66.217 73.7523 67.6791 73.4612 68.9492 73.9873C70.2191 74.5133 71.0469 75.7528 71.0469 77.1275V119.674C71.0468 121.048 70.219 122.287 68.9492 122.814C67.6791 123.34 66.217 123.049 65.245 122.077L43.972 100.804C42.6447 99.4768 42.6447 97.3245 43.972 95.9972L65.245 74.7243ZM51.1815 98.4004L64.2494 111.468V85.3331L51.1815 98.4004Z" fill="white"/>
<path d="M88.9255 98.3982L67.6523 119.671V77.125L88.9255 98.3982Z" fill="white"/>
<path d="M66.3463 73.9872C67.6162 73.4612 69.078 73.7523 70.0499 74.7242L91.3234 95.9972C92.6507 97.3244 92.6507 99.4768 91.3234 100.804L70.0499 122.077C69.0779 123.049 67.6163 123.34 66.3463 122.813C65.0763 122.287 64.2481 121.048 64.248 119.674V77.1274C64.248 75.7528 65.0763 74.5132 66.3463 73.9872ZM71.0455 111.468L84.1128 98.4003L71.0455 85.3325V111.468Z" fill="white"/>
<path d="M67.6437 57.7594L26.8242 97.803V57.7594L67.6437 17.7158V57.7594Z" fill="white"/>
<path d="M65.268 15.2928C66.245 14.3345 67.7014 14.0556 68.9633 14.5853C70.2253 15.1151 71.0467 16.3504 71.0467 17.7191V57.7626C71.0467 58.6753 70.6795 59.5499 70.028 60.189L29.2084 100.233C28.2313 101.191 26.7746 101.47 25.5126 100.94C24.2507 100.41 23.4297 99.1748 23.4297 97.8061V57.7626C23.4297 56.85 23.797 55.9759 24.4485 55.3368L65.268 15.2928ZM30.2271 59.1892V89.7113L64.2493 56.336V25.8139L30.2271 59.1892Z" fill="white"/>
<path d="M66.3304 14.5768C67.5922 14.0469 69.049 14.3252 70.0262 15.2833L110.871 55.3268C111.523 55.966 111.89 56.8407 111.89 57.7537V97.7972C111.89 99.1657 111.069 100.401 109.807 100.931C108.546 101.461 107.089 101.182 106.112 100.224L65.2673 60.1806C64.6154 59.5414 64.248 58.6667 64.248 57.7537V17.7102C64.248 16.3417 65.0688 15.1069 66.3304 14.5768ZM71.0455 56.326L105.092 89.705V59.1808L71.0455 25.8018V56.326Z" fill="white"/>
</svg>
